<?xml version="1.0" encoding="utf-8"?>
<!-- Generator: Adobe Illustrator 22.1.0, SVG Export Plug-In . SVG Version: 6.00 Build 0)  -->
<svg version="1.1" id="Layer_1" xmlns="http://www.w3.org/2000/svg" xmlns:xlink="http://www.w3.org/1999/xlink" x="0px" y="0px"
	 viewBox="0 0 683 227" enable-background="new 0 0 683 227" xml:space="preserve" height="227" width="683">
<path fill="#435773" d="M267.4,116.9v-9.5c-1,1.4-2,2.7-3.1,4s-2.4,2.4-3.9,3.3c-1.4,0.9-3,1.7-4.8,2.3c-1.8,0.6-3.7,0.9-5.8,0.9
	c-2.6,0-5.1-0.5-7.6-1.5s-4.7-2.5-6.6-4.3c-2-1.9-3.5-4.2-4.7-7s-1.8-5.9-1.8-9.3v-0.2c0-3.5,0.6-6.6,1.8-9.3s2.8-5.1,4.7-7
	s4.2-3.4,6.6-4.4c2.5-1,5-1.5,7.6-1.5c2.1,0,4.1,0.3,5.9,0.8c1.8,0.6,3.4,1.3,4.8,2.3s2.7,2,3.8,3.3c1.1,1.2,2.2,2.5,3.1,3.8V55.8
	h4.1v61.1C271.5,116.9,267.4,116.9,267.4,116.9z M267.7,95.5c0-2.7-0.5-5.2-1.5-7.5s-2.3-4.2-3.9-5.8c-1.6-1.6-3.5-2.8-5.6-3.7
	c-2.1-0.9-4.3-1.3-6.5-1.3c-2.4,0-4.5,0.4-6.6,1.3c-2,0.8-3.8,2-5.3,3.6s-2.7,3.5-3.6,5.7c-0.9,2.3-1.3,4.8-1.3,7.7v0.2
	c0,2.8,0.4,5.3,1.3,7.6c0.9,2.3,2.1,4.2,3.6,5.8c1.5,1.6,3.3,2.8,5.4,3.7c2,0.9,4.2,1.3,6.4,1.3s4.4-0.4,6.5-1.3
	c2.1-0.9,4-2.1,5.6-3.8c1.6-1.6,2.9-3.5,3.9-5.8c1-2.2,1.5-4.7,1.5-7.4v-0.3H267.7z"/>
<path fill="#435773" d="M311.2,115.5c-2.8,1.6-6.1,2.4-10,2.4c-3.1,0-5.9-0.6-8.6-1.8c-2.6-1.2-4.9-2.8-6.9-4.8
	c-1.9-2-3.5-4.4-4.6-7c-1.1-2.7-1.6-5.5-1.6-8.5v-0.2c0-3,0.5-5.9,1.6-8.5c1.1-2.7,2.6-5,4.6-7.1c1.9-2.1,4.2-3.7,6.9-4.9
	c2.6-1.2,5.5-1.8,8.6-1.8c2,0,3.8,0.2,5.5,0.6c1.6,0.4,3.2,1,4.6,1.8c1.4,0.7,2.7,1.6,3.8,2.5c1.1,1,2.2,2,3.2,3l-2.9,3
	c-1.8-1.9-3.9-3.5-6.1-4.9s-4.9-2.1-8.1-2.1c-2.5,0-4.7,0.5-6.8,1.4s-3.9,2.2-5.4,3.9s-2.7,3.6-3.6,5.8c-0.9,2.2-1.3,4.6-1.3,7.2
	v0.2c0,2.6,0.5,5,1.4,7.2s2.2,4.2,3.8,5.9c1.6,1.7,3.4,3,5.6,3.9c2.1,0.9,4.4,1.4,6.9,1.4c3,0,5.7-0.7,8.1-2
	c2.4-1.4,4.4-3.1,6.2-5.1l2.8,2.5C316.5,111.8,314,113.9,311.2,115.5z"/>
<path fill="#435773" d="M397.5,104.9c-1.2,2.8-2.8,5.1-4.7,7c-2,1.9-4.2,3.4-6.6,4.4c-2.5,1-5,1.5-7.6,1.5c-2.1,0-4.1-0.3-5.9-0.8
	c-1.8-0.6-3.4-1.3-4.8-2.3c-1.4-0.9-2.7-2-3.9-3.3c-1.1-1.2-2.2-2.5-3.1-3.8v22.6h-4.1v-56h4.1v9.5c0.9-1.4,1.9-2.7,3.1-4
	s2.5-2.4,3.9-3.3s3-1.7,4.8-2.3c1.8-0.6,3.7-0.9,5.8-0.9c2.6,0,5.1,0.5,7.6,1.5s4.7,2.5,6.6,4.3c1.9,1.9,3.5,4.2,4.7,7
	s1.8,5.9,1.8,9.3v0.2C399.3,99,398.7,102.1,397.5,104.9z M394.9,95.6c0-2.8-0.4-5.3-1.3-7.6c-0.9-2.3-2.1-4.2-3.6-5.8
	c-1.5-1.6-3.3-2.8-5.4-3.7c-2-0.9-4.2-1.3-6.4-1.3c-2.2,0-4.4,0.4-6.5,1.3s-4,2.1-5.6,3.8c-1.6,1.6-2.9,3.5-3.9,5.8
	c-1,2.2-1.5,4.7-1.5,7.4v0.2c0,2.7,0.5,5.2,1.5,7.5s2.3,4.2,3.9,5.8c1.6,1.6,3.5,2.8,5.6,3.7c2.1,0.9,4.3,1.3,6.5,1.3
	c2.3,0,4.5-0.4,6.6-1.3c2-0.8,3.8-2,5.3-3.6s2.7-3.5,3.6-5.7c0.9-2.3,1.3-4.8,1.3-7.7v-0.1H394.9z"/>
<path fill="#435773" d="M439.8,116.9v-7.1c-0.7,1-1.6,2-2.6,3s-2.2,1.8-3.6,2.6c-1.3,0.8-2.9,1.4-4.6,1.8c-1.7,0.5-3.6,0.7-5.6,0.7
	s-4-0.3-5.9-0.8c-1.9-0.6-3.7-1.4-5.3-2.5c-1.6-1.1-2.8-2.5-3.8-4.2s-1.5-3.6-1.5-5.9v-0.2c0-2.2,0.5-4.2,1.4-5.9
	c0.9-1.7,2.2-3.2,3.8-4.3c1.6-1.2,3.6-2.1,5.9-2.7s4.8-0.9,7.6-0.9c3,0,5.6,0.2,7.8,0.5c2.2,0.3,4.3,0.8,6.4,1.3v-1.8
	c0-4.3-1.2-7.6-3.7-9.7c-2.5-2.2-5.9-3.2-10.3-3.2c-2.6,0-5,0.3-7.2,1c-2.2,0.6-4.2,1.5-6.2,2.5l-1.5-3.6c2.3-1.1,4.7-2,7.1-2.7
	s5.1-1,8-1c5.5,0,9.9,1.4,13,4.2c3.2,2.8,4.8,7,4.8,12.5v26.6h-4V116.9z M439.9,96.1c-1.8-0.4-3.9-0.9-6.3-1.3s-5.1-0.6-8.2-0.6
	c-4.5,0-8,0.9-10.4,2.7c-2.4,1.8-3.6,4.2-3.6,7.2v0.2c0,1.6,0.3,2.9,1,4.1s1.6,2.2,2.7,3s2.5,1.5,4,1.9s3.1,0.7,4.7,0.7
	c2.2,0,4.2-0.3,6.2-1c1.9-0.6,3.7-1.5,5.1-2.7s2.6-2.5,3.5-4.1s1.3-3.4,1.3-5.3L439.9,96.1L439.9,96.1z"/>
<path fill="#435773" d="M455.6,63.1v-5.6h5.1v5.6H455.6z M456.1,116.9V74.2h4.1v42.7C460.2,116.9,456.1,116.9,456.1,116.9z"/>
<path fill="#435773" d="M507.4,116.9v-9.5c-1,1.4-2,2.7-3.1,4s-2.4,2.4-3.9,3.3c-1.4,0.9-3,1.7-4.8,2.3c-1.8,0.6-3.7,0.9-5.8,0.9
	c-2.6,0-5.1-0.5-7.6-1.5s-4.7-2.5-6.6-4.3c-2-1.9-3.5-4.2-4.7-7s-1.8-5.9-1.8-9.3v-0.2c0-3.5,0.6-6.6,1.8-9.3s2.8-5.1,4.7-7
	c1.9-1.9,4.2-3.4,6.6-4.4c2.5-1,5-1.5,7.6-1.5c2.1,0,4.1,0.3,5.9,0.8c1.8,0.6,3.4,1.3,4.8,2.3s2.7,2,3.8,3.3
	c1.1,1.2,2.2,2.5,3.1,3.8V55.8h4.1v61.1C511.5,116.9,507.4,116.9,507.4,116.9z M507.6,95.5c0-2.7-0.5-5.2-1.5-7.5s-2.3-4.2-3.9-5.8
	c-1.6-1.6-3.5-2.8-5.6-3.7c-2.1-0.9-4.3-1.3-6.5-1.3c-2.4,0-4.5,0.4-6.6,1.3c-2,0.8-3.8,2-5.3,3.6s-2.7,3.5-3.6,5.7
	c-0.9,2.3-1.3,4.8-1.3,7.7v0.2c0,2.8,0.4,5.3,1.3,7.6c0.9,2.3,2.1,4.2,3.6,5.8c1.5,1.6,3.3,2.8,5.4,3.7c2,0.9,4.2,1.3,6.4,1.3
	c2.2,0,4.4-0.4,6.5-1.3s4-2.1,5.6-3.8c1.6-1.6,2.9-3.5,3.9-5.8c1-2.2,1.5-4.7,1.5-7.4v-0.3H507.6z"/>
<path fill="#435773" d="M42.1,139.3c-0.9-0.2-1.9-0.3-3-0.3c-3.1,0-4.6,1.6-4.6,4.8v1.8h10.3V156H34.7v34H22v-34h-5.3v-10.5H22v-2.8
	c0-5,1.2-8.6,3.6-10.9c2.4-2.3,5.8-3.5,10.3-3.5c2,0,3.7,0.1,5.1,0.3s2.7,0.5,3.9,0.9V140C43.9,139.7,43,139.5,42.1,139.3z"/>
<path fill="#435773" d="M78,189.9v-4.8c-1.6,1.7-3.4,3.1-5.6,4.1s-4.8,1.5-7.9,1.5c-2.1,0-4.1-0.3-6-0.9c-1.9-0.6-3.5-1.5-4.9-2.6
	c-1.4-1.2-2.5-2.6-3.3-4.3s-1.2-3.7-1.2-5.9v-0.2c0-2.5,0.4-4.6,1.3-6.4c0.9-1.8,2.1-3.3,3.7-4.4c1.6-1.2,3.5-2,5.7-2.6
	s4.6-0.9,7.3-0.9c2.3,0,4.3,0.2,6,0.5s3.4,0.8,5,1.3v-0.8c0-2.7-0.8-4.7-2.4-6.1c-1.6-1.4-4-2.1-7.2-2.1c-2.5,0-4.6,0.2-6.5,0.6
	c-1.9,0.4-3.8,1-5.9,1.8l-3.2-9.7c2.5-1.1,5-1.9,7.7-2.6c2.7-0.7,5.9-1,9.7-1c7,0,12,1.7,15.2,5.1c3.2,3.4,4.8,8.1,4.8,14.2v26H78
	V189.9z M78.3,171.8c-1.1-0.5-2.4-0.9-3.7-1.2c-1.4-0.3-2.8-0.5-4.4-0.5c-2.7,0-4.9,0.5-6.4,1.6c-1.6,1.1-2.3,2.6-2.3,4.6v0.2
	c0,1.7,0.6,3.1,1.9,4c1.3,1,3,1.4,5,1.4c3,0,5.4-0.7,7.2-2.2c1.8-1.4,2.7-3.3,2.7-5.7V171.8z"/>
<path fill="#435773" d="M157,189.9V165c0-3-0.6-5.3-1.9-6.8c-1.3-1.5-3.1-2.3-5.5-2.3s-4.3,0.8-5.6,2.3c-1.4,1.5-2,3.8-2,6.8v24.9
	h-12.7V165c0-3-0.6-5.3-1.9-6.8c-1.3-1.5-3.1-2.3-5.5-2.3s-4.3,0.8-5.6,2.3c-1.4,1.5-2,3.8-2,6.8v24.9h-12.7v-44.8H114v6.4
	c0.7-1,1.5-1.9,2.4-2.7c0.9-0.9,1.8-1.6,2.9-2.3s2.2-1.2,3.6-1.6s2.8-0.6,4.4-0.6c3,0,5.5,0.6,7.7,1.9c2.1,1.2,3.8,3,5,5.3
	c2-2.4,4.1-4.1,6.5-5.4c2.4-1.2,5.1-1.8,8.2-1.8c4.7,0,8.5,1.4,11.1,4.2c2.7,2.8,4,6.9,4,12.3V190L157,189.9L157,189.9z"/>
<path fill="#435773" d="M181,140.1v-11.3h13.4v11.3H181z M181.3,189.9v-44.8H194v44.8H181.3z"/>
<path fill="#435773" d="M206.6,189.9v-61.1h12.7v61.1H206.6z"/>
<path fill="#435773" d="M256.7,191c-0.8,2.3-1.7,4.2-2.7,5.8s-2,2.9-3.1,3.9s-2.4,1.7-3.9,2.2s-3.1,0.7-5,0.7
	c-2.3,0-4.4-0.3-6.2-0.8c-1.8-0.6-3.5-1.3-5.1-2.3l4.3-9.2c0.8,0.5,1.7,0.9,2.7,1.3s1.9,0.5,2.7,0.5c1.1,0,2-0.2,2.6-0.6
	c0.6-0.4,1.2-1.2,1.8-2.3l-17.6-45h13.5l10.2,30.5l9.8-30.5h13.2L256.7,191z"/>
<path fill="#435773" d="M305.6,189.9v-61.1h12.7v61.1H305.6z"/>
<path fill="#435773" d="M370.5,170.3c0,0.4-0.1,1-0.1,1.6h-31.2c0.6,2.9,1.9,5.1,3.8,6.6s4.3,2.2,7.2,2.2c2.1,0,4-0.4,5.7-1.1
	c1.7-0.7,3.4-1.9,5.2-3.5l7.3,6.4c-2.1,2.6-4.7,4.7-7.7,6.1c-3,1.5-6.6,2.2-10.6,2.2c-3.3,0-6.5-0.6-9.3-1.7
	c-2.9-1.1-5.4-2.7-7.4-4.8s-3.7-4.5-4.9-7.3c-1.2-2.8-1.8-6-1.8-9.4v-0.2c0-3.2,0.5-6.2,1.6-9s2.6-5.3,4.6-7.4c2-2.1,4.3-3.8,7-5
	s5.7-1.8,9-1.8c3.7,0,7,0.7,9.7,2s5,3.1,6.8,5.4c1.8,2.3,3.2,4.8,4,7.8c0.9,2.9,1.3,6,1.3,9.2v0.2
	C370.6,169.4,370.6,169.9,370.5,170.3z M355.2,157.1c-1.6-1.8-3.8-2.6-6.4-2.6s-4.8,0.9-6.5,2.6c-1.6,1.7-2.7,4-3.2,6.9h19.2
	C357.8,161.1,356.8,158.8,355.2,157.1z"/>
<path fill="#435773" d="M406.3,189.9v-4.8c-1.6,1.7-3.4,3.1-5.6,4.1s-4.8,1.5-7.9,1.5c-2.1,0-4.1-0.3-6-0.9
	c-1.9-0.6-3.5-1.5-4.9-2.6c-1.4-1.2-2.5-2.6-3.3-4.3s-1.2-3.7-1.2-5.9v-0.2c0-2.5,0.4-4.6,1.3-6.4c0.9-1.8,2.1-3.3,3.7-4.4
	c1.6-1.2,3.5-2,5.7-2.6s4.6-0.9,7.3-0.9c2.3,0,4.3,0.2,6,0.5s3.4,0.8,5,1.3v-0.8c0-2.7-0.8-4.7-2.4-6.1c-1.6-1.4-4-2.1-7.2-2.1
	c-2.5,0-4.6,0.2-6.5,0.6c-1.9,0.4-3.8,1-5.9,1.8l-3.2-9.7c2.5-1.1,5-1.9,7.7-2.6c2.7-0.7,5.9-1,9.7-1c7,0,12,1.7,15.2,5.1
	c3.2,3.4,4.8,8.1,4.8,14.2v26h-12.3V189.9z M406.5,171.8c-1.1-0.5-2.4-0.9-3.7-1.2c-1.4-0.3-2.8-0.5-4.4-0.5c-2.7,0-4.9,0.5-6.4,1.6
	c-1.6,1.1-2.3,2.6-2.3,4.6v0.2c0,1.7,0.6,3.1,1.9,4c1.3,1,3,1.4,5,1.4c3,0,5.4-0.7,7.2-2.2c1.8-1.4,2.7-3.3,2.7-5.7L406.5,171.8
	L406.5,171.8z"/>
<path fill="#435773" d="M451.7,190.2h-11.5L422.6,145H436l10,30l10.1-30h13.2L451.7,190.2z"/>
<path fill="#435773" d="M515.5,170.3c0,0.4-0.1,1-0.1,1.6h-31.2c0.6,2.9,1.9,5.1,3.8,6.6s4.3,2.2,7.2,2.2c2.1,0,4-0.4,5.7-1.1
	c1.7-0.7,3.4-1.9,5.2-3.5l7.3,6.4c-2.1,2.6-4.7,4.7-7.7,6.1c-3,1.5-6.6,2.2-10.6,2.2c-3.3,0-6.5-0.6-9.3-1.7
	c-2.9-1.1-5.4-2.7-7.4-4.8c-2.1-2.1-3.7-4.5-4.9-7.3c-1.2-2.8-1.8-6-1.8-9.4v-0.2c0-3.2,0.5-6.2,1.6-9s2.6-5.3,4.6-7.4
	c2-2.1,4.3-3.8,7-5s5.7-1.8,9-1.8c3.7,0,7,0.7,9.7,2s5,3.1,6.8,5.4c1.8,2.3,3.2,4.8,4,7.8c0.9,2.9,1.3,6,1.3,9.2v0.2
	C515.5,169.4,515.5,169.9,515.5,170.3z M500.1,157.1c-1.6-1.8-3.8-2.6-6.4-2.6s-4.8,0.9-6.5,2.6c-1.6,1.7-2.7,4-3.2,6.9h19.2
	C502.7,161.1,501.7,158.8,500.1,157.1z"/>
<g>
	<path fill="#BF0000" d="M587.1,113.3l-1.6-11.6l9.7,7.4l2.7,20.2l-20.2,2.7l-9.7-7.4l13.7-1.8l-31.6-31.5c0,0-17.7-15.4-7.7-41.1
		c0,0,7.6-19.9,30.2-21.7c0,0,10.2-1,19.7,3.5l-5,9.2c0,0-10.4-5.7-23,0.3c0,0-12.1,5.6-14.2,19.4c0,0-2.3,11,5.3,20.5
		c0,0,1.9,2.2,7.9,8.1L587.1,113.3z"/>
	<path fill="#BF0000" d="M598.3,33.6l-5.9,10.7l5.7,19.6l19.6-5.7l5.9-10.7l-14.1,4.1c0,0,7.4-13.5,23.7-12.7s22.9,15.4,22.9,15.4
		s3.5,7.2,2.1,14.7c0,0-0.4,4.5-3.3,9.5c0,0-1.8,3-3.4,4.6l-51,51.1l7.4,7.4l47.4-47.4c0,0,5-4.5,8-9.2c0,0,4.7-6.5,5.5-15.9
		c0,0,2.2-11.4-5.9-24.1c-8.1-12.7-22.5-15.7-22.5-15.7s-23.5-6.5-38.8,15.3L598.3,33.6z"/>
</g>
</svg>
